# xmcd
#
# Track frame offsets:
#   150
#   16665
#   38428
#   62507
#   92575
#   113674
#   125447
#   145014
#   156270
#
# Disc length: 2272 seconds
#
# Revision: 0
# Processed by: cddbd v1.5.2PL0 Copyright (c) Steve Scherf et al.
# Submitted via: uFREEDB ActiveX Control 1.5
#
DISCID=6108de09
DTITLE=Bjork - Selmasongs
DYEAR=2000
DGENRE=Pop Internacional
TTITLE0=Overture
TTITLE1=Cvalda
TTITLE2=I Ve Seen It All 
TTITLE3=Scatterheart
TTITLE4=In The Musicais 
TTITLE5=107 Steps 
TTITLE6=New World
TTITLE7=Bonus 1
TTITLE8=Bonus 2
EXTD=
EXTT0=
EXTT1=
EXTT2=
EXTT3=
EXTT4=
EXTT5=
EXTT6=
EXTT7=
EXTT8=
PLAYORDER=
